<svg xmlns="http://www.w3.org/2000/svg" width="16" height="16" viewBox="0 0 16 16" shape-rendering="crispEdges">
  <!-- Envelope background -->
  <rect x="1" y="3" width="14" height="10" fill="#FFFFFF"/>

  <!-- Envelope outline -->
  <rect x="1" y="3" width="14" height="1" fill="#DADCE0"/>
  <rect x="1" y="12" width="14" height="1" fill="#DADCE0"/>
  <rect x="1" y="3" width="1" height="10" fill="#DADCE0"/>
  <rect x="14" y="3" width="1" height="10" fill="#DADCE0"/>

  <!-- Gmail "M" pixel-art strokes -->
  <!-- Red -->
  <g fill="#EA4335">
    <rect x="2" y="4" width="1" height="8"/>  <!-- left vertical -->
    <rect x="13" y="4" width="1" height="1"/> <!-- top-right red cap -->
    <!-- outer diagonals -->
    <rect x="3" y="5" width="1" height="1"/>
    <rect x="4" y="6" width="1" height="1"/>
    <rect x="5" y="7" width="1" height="1"/>
    <rect x="6" y="8" width="1" height="1"/>
    <rect x="7" y="9" width="1" height="1"/>

    <rect x="12" y="5" width="1" height="1"/>
    <rect x="11" y="6" width="1" height="1"/>
    <rect x="10" y="7" width="1" height="1"/>
    <rect x="9" y="8" width="1" height="1"/>
    <rect x="8" y="9" width="1" height="1"/>
  </g>

  <!-- Yellow (left inner diagonal) -->
  <g fill="#FBBC05">
    <rect x="3" y="4" width="1" height="1"/>
    <rect x="4" y="5" width="1" height="1"/>
    <rect x="5" y="6" width="1" height="1"/>
    <rect x="6" y="7" width="1" height="1"/>
    <rect x="7" y="8" width="1" height="1"/>
  </g>

  <!-- Green (right inner diagonal) -->
  <g fill="#34A853">
    <rect x="12" y="4" width="1" height="1"/>
    <rect x="11" y="5" width="1" height="1"/>
    <rect x="10" y="6" width="1" height="1"/>
    <rect x="9" y="7" width="1" height="1"/>
    <rect x="8" y="8" width="1" height="1"/>
  </g>

  <!-- Blue (right vertical) -->
  <g fill="#4285F4">
    <rect x="13" y="5" width="1" height="7"/>
  </g>
</svg>
