<svg xmlns="http://www.w3.org/2000/svg" viewBox="0 0 480 520" width="480" height="520" shape-rendering="crispEdges">
  <g fill="#005C4B">
    <rect x="40" y="480" width="40" height="40" />
    <rect x="80" y="480" width="40" height="40" />
    <rect x="120" y="440" width="40" height="40" />
    <rect x="160" y="440" width="40" height="40" />
    <rect x="200" y="440" width="40" height="40" />
    <rect x="240" y="440" width="40" height="40" />
    <rect x="280" y="440" width="40" height="40" />
    <rect x="320" y="440" width="40" height="40" />
    <rect x="360" y="400" width="40" height="40" />
    <rect x="400" y="360" width="40" height="40" />
    <rect x="440" y="320" width="40" height="40" />
    <rect x="440" y="280" width="40" height="40" />
    <rect x="440" y="240" width="40" height="40" />
    <rect x="440" y="200" width="40" height="40" />
    <rect x="440" y="160" width="40" height="40" />
    <rect x="440" y="120" width="40" height="40" />
    <rect x="400" y="80" width="40" height="40" />
    <rect x="360" y="40" width="40" height="40" />
    <rect x="320" y="0" width="40" height="40" />
    <rect x="280" y="0" width="40" height="40" />
    <rect x="240" y="0" width="40" height="40" />
    <rect x="200" y="0" width="40" height="40" />
    <rect x="160" y="0" width="40" height="40" />
    <rect x="120" y="0" width="40" height="40" />
    <rect x="80" y="40" width="40" height="40" />
    <rect x="40" y="80" width="40" height="40" />
    <rect x="0" y="120" width="40" height="40" />
    <rect x="0" y="160" width="40" height="40" />
    <rect x="0" y="200" width="40" height="40" />
    <rect x="0" y="240" width="40" height="40" />
    <rect x="0" y="280" width="40" height="40" />
    <rect x="0" y="320" width="40" height="40" />
    <rect x="40" y="360" width="40" height="40" />
    <rect x="40" y="400" width="40" height="40" />
    <rect x="40" y="440" width="40" height="40" />
    <rect x="320" y="320" width="40" height="40" />
    <rect x="320" y="280" width="40" height="40" />
    <rect x="280" y="280" width="40" height="40" />
    <rect x="240" y="320" width="40" height="40" />
    <rect x="280" y="320" width="40" height="40" />
    <rect x="200" y="280" width="40" height="40" />
    <rect x="160" y="240" width="40" height="40" />
    <rect x="120" y="200" width="40" height="40" />
    <rect x="120" y="160" width="40" height="40" />
    <rect x="160" y="160" width="40" height="40" />
    <rect x="160" y="120" width="40" height="40" />
    <rect x="120" y="120" width="40" height="40" />
  </g>
</svg>